OpenSim_Sub03_CSStiffKnee_RCS.mot
version=1
nRows=78
nColumns=11
inDegrees=no
endheader
time	Top_Thigh	Med_Thigh	Bot_Thigh	Top_Shank	2nd_Top_Shank	2nd_Bot_Shank	Bot_Shank	BNOx	BNOy	BNOZ
18.18000000	9882.91771965	9961.28352790	10614.75629170	10816.01934350	12077.97115122	13044.85455727	14119.63129160	11.78638490	-79.07348094	163.57508901
18.19000000	9879.08121285	9960.68964546	10615.61013478	10816.17210375	12081.25778607	13028.70881868	14121.14884296	12.18352978	-79.04465520	163.18180337
18.20000000	9875.83652073	9959.96221843	10616.73206409	10816.33579367	12082.63258297	13012.90996764	14125.13152025	11.71403213	-79.01658479	163.62087855
18.21000000	9873.06396241	9959.04953963	10618.03729875	10816.47934616	12081.24111865	12997.63215648	14130.53288550	10.61137427	-78.98385812	164.65154798
18.22000000	9870.64385700	9957.89990189	10619.44105788	10816.57169410	12076.22896982	12983.04953757	14136.30650073	9.10903853	-78.94106360	166.03304510
18.23000000	9868.45652364	9956.46159805	10620.85856058	10816.58177041	12066.74171319	12969.33626325	14141.40592797	7.44050725	-78.88278964	167.52460334
18.24000000	9866.38228142	9954.68292092	10622.20502600	10816.47850797	12051.92492548	12956.66648588	14144.78472922	5.83926276	-78.80362465	168.88545615
18.25000000	9864.30144948	9952.51216335	10623.39567323	10816.23083969	12030.92418342	12945.21435781	14145.39646652	4.53878739	-78.69815704	169.87483696
18.26000000	9862.09797074	9949.90143557	10624.34832018	10815.80922699	12002.91412295	12935.15075952	14142.21403310	3.76875633	-78.56121050	170.25596730
18.27000000	9859.79666378	9946.95125003	10625.08181195	10815.24355282	11968.19905783	12926.51937825	14134.96182322	3.61084197	-78.39675504	169.94710535
18.28000000	9857.60534962	9943.95489886	10625.74623158	10814.64089080	11928.55079324	12919.19867261	14124.34045760	3.95445587	-78.22064205	169.06790744
18.29000000	9855.74407965	9941.21855800	10626.50043298	10814.11347331	11885.83920928	12913.05605874	14111.11579977	4.67616044	-78.04951700	167.75148964
18.30000000	9854.43290526	9939.04840337	10627.50327004	10813.77353277	11841.93418606	12907.95895277	14096.05371329	5.65251813	-77.90002536	166.13096805
18.31000000	9853.89187783	9937.75061091	10628.91359665	10813.73330156	11798.70560369	12903.77477083	14079.92006171	6.76009136	-77.78881257	164.33945875
18.32000000	9854.34104876	9937.63135654	10630.89026672	10814.10501207	11758.02334225	12900.37092903	14063.48070859	7.87544256	-77.73252411	162.51007783
18.33000000	9856.00046942	9938.99681619	10633.59213413	10815.00089670	11721.75728186	12897.61484353	14047.50151746	8.87513416	-77.74780542	160.77594139
18.34000000	9859.08711821	9942.14875065	10637.17553295	10816.53166390	11691.76760138	12895.37443361	14032.74551880	9.63660810	-77.85106181	159.26924269
18.35000000	9863.58021435	9947.04731960	10641.60183679	10818.69011264	11669.16389150	12893.55654938	14019.75654527	10.10535426	-78.04011732	158.05077719
18.36000000	9869.05595875	9953.07364510	10646.50194778	10821.26917724	11653.78344387	12892.13403134	14008.70687410	10.34220853	-78.28129944	157.06031603
18.37000000	9875.05151384	9959.55276058	10651.47475680	10824.04243204	11645.34030848	12891.08611217	13999.73279172	10.41917980	-78.53788476	156.22590730
18.38000000	9881.10404207	9965.80969948	10656.11915477	10826.78345141	11643.54853537	12890.39202456	13992.97058451	10.40827696	-78.77314986	155.47559908
18.39000000	9886.75070587	9971.16949521	10660.03403258	10829.26580969	11648.12217454	12890.03100120	13988.55653889	10.38150893	-78.95037132	154.73743947
18.40000000	9891.52866768	9974.95718122	10662.81828113	10831.26308124	11658.77527600	12889.98227475	13986.62694126	10.41088461	-79.03282572	153.93947656
18.41000000	9894.97508992	9976.49779091	10664.07079133	10832.54884041	11675.22188978	12890.22507791	13987.31807803	10.56841288	-78.98378964	153.00975844
18.42000000	9896.62713504	9975.11635773	10663.39045407	10832.89666156	11697.17606589	12890.73864336	13990.76623560	10.92610266	-78.76653966	151.87633319
18.43000000	9896.02196548	9970.13791509	10660.37616025	10832.08011904	11724.35185434	12891.50220378	13997.10770039	11.55596284	-78.34435237	150.46724891
18.44000000	9892.69674365	9960.88749643	10654.62680078	10829.87278721	11756.46330515	12892.49499185	14006.47875879	12.53000233	-77.68050435	148.71055369
18.45000000	9886.18863201	9946.69013518	10645.74126656	10826.04824041	11793.22446833	12893.69624026	14019.01569721	13.92023002	-76.73827217	146.53429562
18.46000000	9876.03479299	9926.87086475	10633.31844848	10820.38005301	11834.34939391	12895.08518170	14034.85480206	15.79865481	-75.48093243	143.86652278
18.47000000	9861.80593245	9900.79866725	10616.98234838	10812.65913549	11879.51853480	12896.63933453	14054.10892113	18.23581987	-73.87285949	140.63874709
18.48000000	9844.37675751	9869.55102905	10597.33315557	10803.35034124	11927.10625770	12898.26957388	14075.97972600	21.24528788	-71.92110504	136.91713609
18.49000000	9826.31591896	9836.42484408	10576.23916140	10793.79399919	11973.79027699	12899.80020284	14098.48523815	24.76660184	-69.68815998	132.94277983
18.50000000	9810.30527672	9804.86533298	10555.65340663	10785.38894784	12016.13491695	12901.04973878	14119.56437370	28.73435790	-67.24022038	128.96845871
18.51000000	9799.02669070	9778.31771640	10537.52893201	10779.53402564	12050.70450186	12901.83669906	14137.15604882	33.08315221	-64.64348225	125.24695311
18.52000000	9795.06334304	9760.11473766	10523.75705567	10777.57628979	12074.18883655	12901.98715298	14149.26899894	37.74448309	-61.96450935	122.02488405
18.53000000	9798.72882690	9751.00216173	10514.80947504	10779.67182792	12086.16377898	12901.50086440	14155.51780373	42.57859888	-59.27832287	119.40720702
18.54000000	9808.06714646	9749.13877524	10509.73826685	10784.78575814	12089.09124016	12900.55129176	14157.12288707	47.37449796	-56.66840142	117.35721194
18.55000000	9821.02362811	9752.57088747	10507.53378522	10791.83141726	12085.55861169	12899.31944544	14155.37449214	51.91808085	-54.21859135	115.83202937
18.56000000	9835.54359827	9759.34480771	10507.18638424	10799.72214210	12078.15328517	12897.98633581	14151.56286214	55.99524810	-52.01273900	114.78878984
18.57000000	9849.57238332	9767.50684528	10507.68641804	10807.37126947	12069.46265221	12896.73297324	14146.97824026	59.39190025	-50.13469069	114.18462393
18.58000000	9861.06729631	9775.11322411	10508.02998676	10813.69831296	12062.06059732	12895.73931987	14142.90422573	61.89600585	-48.66757122	113.97621060
18.59000000	9868.91306203	9780.98726931	10507.65776555	10818.10068550	12057.47595754	12895.10423519	14140.11037281	63.45553692	-47.63867865	114.08528992
18.60000000	9873.56643246	9785.25259564	10506.76401494	10820.78587257	12055.46614190	12894.78910412	14138.49489380	64.28968243	-46.98068084	114.37437812
18.61000000	9875.63643449	9788.15877081	10505.61599176	10822.03982754	12055.61696952	12894.74199503	14137.87159824	64.64390287	-46.61707931	114.70025466
18.62000000	9875.73209498	9789.95536252	10504.48095283	10822.14850380	12057.51425954	12894.91097631	14138.05429566	64.76365872	-46.47137555	114.91969903
18.63000000	9874.46244083	9790.89193848	10503.62615496	10821.39785474	12060.74383107	12895.24411635	14138.85679557	64.89441046	-46.46707106	114.88949070
18.64000000	9872.43649891	9791.21806640	10503.31885497	10820.07383374	12064.89150325	12895.68948354	14140.09290751	65.28161858	-46.52766733	114.46640916
18.65000000	9870.26329609	9791.18331398	10503.82630968	10818.46239420	12069.54309520	12896.19514625	14141.57644101	66.17074357	-46.57666588	113.50723387
18.66000000	9868.55185925	9791.03724893	10505.41577590	10816.84948949	12074.28442606	12896.70917289	14143.12120558	67.80724591	-46.53756818	111.86874432
18.67000000	9867.90231487	9791.02612271	10508.34785622	10815.51739108	12078.70510622	12897.18019346	14144.54307649	70.42958792	-46.33559776	109.41271895
18.68000000	9868.56878616	9791.26726775	10512.62446967	10814.60523548	12082.54213215	12897.57867134	14145.73823459	74.00417841	-45.96292101	106.19527144
18.69000000	9870.35592587	9791.71054613	10517.91149619	10814.06622187	12085.72395994	12897.90343223	14146.70718050	78.14401906	-45.49866553	102.52496376
18.70000000	9873.03834789	9792.29462758	10523.85235767	10813.84112289	12088.19184130	12898.15519731	14147.45738672	82.43849275	-45.02777068	98.72722942
18.71000000	9876.39066609	9792.95818185	10530.09047601	10813.87071122	12089.88702791	12898.33468778	14147.99632575	86.47698236	-44.63517584	95.12750194
18.72000000	9880.18749438	9793.63987867	10536.26927309	10814.09575951	12090.75077147	12898.44262483	14148.33147008	89.84887078	-44.40582036	92.05121483
18.73000000	9884.20344661	9794.27838779	10542.03217082	10814.45704043	12090.72432365	12898.47972966	14148.47029221	92.14354089	-44.42464361	89.82380163
18.74000000	9888.21313669	9794.81237894	10547.02259106	10814.89532663	12089.74893616	12898.44672344	14148.42026463	92.95037556	-44.77658494	88.77069584
18.75000000	9891.99117850	9795.18052187	10550.88395573	10815.35139079	12087.76586067	12898.34432738	14148.18885985	91.85875769	-45.54658374	89.21733098
18.76000000	9895.31218591	9795.32148632	10553.25968671	10815.76600555	12084.71634888	12898.17326267	14147.78355034	88.45807015	-46.81957935	91.48914057
18.77000000	9897.95077281	9795.17394202	10553.79320588	10816.07994358	12080.54165249	12897.93425050	14147.21180862	82.33769583	-48.68051114	95.91155813
18.78000000	9899.68155309	9794.67655873	10552.12793515	10816.23397755	12075.18302317	12897.62801205	14146.48110718	73.08701760	-51.21431847	102.81001718
18.79000000	9900.27914062	9793.76800617	10547.90729639	10816.16888011	12068.58171262	12897.25526853	14145.59891851	60.29541836	-54.50594072	112.50995123
18.80000000	9899.52320143	9792.39094233	10540.79296178	10815.82748114	12060.69694410	12896.81777913	14144.57414410	43.61231155	-58.63395822	125.29169359
18.81000000	9897.38980320	9790.64306807	10531.15608237	10815.23258482	12052.18658595	12896.35765532	14143.47123728	25.02079907	-63.42974430	139.68230717
18.82000000	9894.11014636	9788.82349042	10520.28944746	10814.51088474	12044.61607113	12895.96942764	14142.42681523	9.53552665	-68.40354166	151.93129455
18.83000000	9889.93248226	9787.24477674	10509.54744097	10813.79601762	12039.61148668	12895.75112988	14141.58231793	2.37374320	-73.04413130	158.13594516
18.84000000	9885.10506226	9786.21949437	10500.28444684	10813.22162016	12038.79891965	12895.80079581	14141.07918540	8.75269762	-76.84029420	154.39354840
18.85000000	9879.87708692	9786.05730548	10493.83392539	10812.91908863	12043.74712940	12896.21263779	14141.05515720	33.76677221	-79.28989517	136.89253961
18.86000000	9874.53465645	9786.95493279	10490.71593258	10812.93272177	12053.79626163	12896.93230971	14141.50411919	77.73390954	-80.24393207	105.36465198
18.87000000	9869.41180502	9788.96238673	10490.39388326	10813.19367555	12065.39141410	12897.71248278	14142.23308615	134.76728808	-80.01213513	64.14448794
18.88000000	9864.84577032	9792.11987269	10492.26057519	10813.62554443	12074.78420361	12898.29293085	14143.03658393	198.56541145	-78.93489243	17.87426743
18.89000000	9861.17379003	9796.46759608	10495.70880613	10814.15192286	12078.22624698	12898.41342777	14143.70913839	262.82678326	-77.35259202	-28.80378963
18.90000000	9858.73310183	9802.04576228	10500.13137385	10814.69640531	12071.96916104	12897.81374740	14144.04527541	321.24990716	-75.60562200	-71.24746331
18.91000000	9857.85322234	9808.88861166	10504.92561220	10815.18349171	12052.34376586	12896.24089648	14143.84311324	367.62268565	-74.03042370	-104.88054167
18.92000000	9858.56351134	9816.79849397	10509.66519580	10815.57288268	12018.75990823	12893.72306039	14143.04042490	399.20840307	-72.81000976	-127.69287365
18.93000000	9860.50341427	9825.27652483	10514.15287221	10815.87000573	11974.62719956	12890.65368548	14141.75639984	417.78498772	-71.92808343	-141.00771201
18.94000000	9863.28631795	9833.80368790	10518.20669827	10816.08334442	11923.62256227	12887.45062913	14140.12235190	425.43208909	-71.35502779	-146.37108652
18.95000000	9866.52560921	9841.86096681	10521.64473086	10816.22138227	11869.42291877	12884.53174870	14138.26959488	424.22935673	-71.06122595	-145.32902692
